<?xml version="1.0" encoding="UTF-8" standalone="no"?>
<svg
   xmlns:dc="http://purl.org/dc/elements/1.1/"
   xmlns:cc="http://creativecommons.org/ns#"
   xmlns:rdf="http://www.w3.org/1999/02/22-rdf-syntax-ns#"
   xmlns:svg="http://www.w3.org/2000/svg"
   xmlns="http://www.w3.org/2000/svg"
   viewBox="0 0 242.5 242.5"
   height="242.5"
   width="242.5"
   xml:space="preserve"
   version="1.1"
   id="svg2"><metadata
     id="metadata8"><rdf:RDF><cc:Work
         rdf:about=""><dc:format>image/svg+xml</dc:format><dc:type
           rdf:resource="http://purl.org/dc/dcmitype/StillImage" /></cc:Work></rdf:RDF></metadata><defs
     id="defs6" /><g
     transform="matrix(1.25,0,0,-1.25,0,242.5)"
     id="g10"><g
       transform="scale(0.1,0.1)"
       id="g12"><path
         id="path16"
         style="fill:#231f20;fill-opacity:1;fill-rule:evenodd;stroke:none"
         d="m 966.379,155.887 c 449.311,0 813.561,364.254 813.561,813.566 0,449.307 -364.25,813.557 -813.561,813.557 -449.313,0 -813.563,-364.25 -813.563,-813.557 0,-449.312 364.25,-813.566 813.563,-813.566" /><path
         id="path18"
         style="fill:#ffffff;fill-opacity:1;fill-rule:evenodd;stroke:none"
         d="m 239.984,969.453 c 0,400.537 325.856,726.387 726.395,726.387 400.541,0 726.391,-325.85 726.391,-726.387 0,-400.543 -325.85,-726.398 -726.391,-726.398 -400.539,0 -726.395,325.855 -726.395,726.398" /><path
         id="path20"
         style="fill:#231f20;fill-opacity:1;fill-rule:evenodd;stroke:none"
         d="m 1344.1,583.426 142.29,14.695 C 1370.33,436.047 1180.49,330.219 966.379,330.219 c -154.024,0 -295.5,54.765 -405.981,145.836 l 655.202,89.554 c 41.34,5.36 153.41,46.871 140.95,158.942 -11.25,101.265 -92.7,125.91 -92.7,125.91 0,0 102.39,33.211 84.41,156.349 -20.83,142.5 -213.77,109.99 -213.77,109.99 l -189.357,-24.94 -0.012,-431.641 -1.25,0 -0.004,-60.696 -449.004,-61.21 c -104.105,113.753 -167.715,265.152 -167.715,431.14 0,77.247 13.786,151.347 39.008,219.957 l 107.395,14.92 0.023,71.23 -73.676,-10.22 c 106.934,203.9 320.715,343.34 566.481,343.34 182.841,0 347.971,-77.18 464.591,-200.65 l -903.505,-125.07 -0.16,-92.14 -0.02,-156.34 -0.262,-0.04 -0.128,-71.237 0.39,0.051 -0.019,-167.977 -0.672,-0.089 -0.129,-71.247 363.89,49.965 0.133,71.242 -291.277,-39.996 -0.492,167.907 292.097,40.111 0.133,71.24 -292.429,-40.15 -0.528,177.15 885.968,122.71 c 76.47,-105.35 121.65,-234.82 121.65,-374.667 0,-103.246 -24.64,-200.836 -68.3,-287.258 l -135.1,-13.679 c 0,0 -5.53,-53.266 -58.11,-85.09 z m -222.07,222.066 -108.28,-14.644 0.52,-181.657 174.28,23.282 c 0,0 107.64,17.742 91.9,93.465 -22.13,106.535 -158.42,79.554 -158.42,79.554 z m 155.66,176.414 c -6.88,83.974 -99.51,69.784 -99.51,69.784 l -165.13,-21.74 0.49,-167.895 c 0,0 88.43,9.847 125.78,16.078 37.36,6.226 145.29,19.367 138.37,103.773" /></g></g></svg>